<?xml version="1.0" encoding="UTF-8"?>
<svg width="160" height="160" viewBox="30 30 100 100" fill="none" xmlns="http://www.w3.org/2000/svg">
    <!-- Base hexagon with smooth edges -->
    <path d="M80 28C84.8 28 89.2 29.6 92.4 32L115.2 46.4C118.4 48.4 120 51.6 120 55.2V96.8C120 100.4 118.4 103.6 115.2 105.6L92.4 120C89.2 122.4 84.8 124 80 124C75.2 124 70.8 122.4 67.6 120L44.8 105.6C41.6 103.6 40 100.4 40 96.8V55.2C40 51.6 41.6 48.4 44.8 46.4L67.6 32C70.8 29.6 75.2 28 80 28Z" 
          stroke="currentColor" 
          stroke-width="6" 
          stroke-linejoin="round"
          stroke-linecap="round"/>
    
    <!-- Orbiting circles -->
    <circle cx="80" cy="48" r="10" fill="currentColor"/>
    <circle cx="108" cy="96" r="10" fill="currentColor"/>
    <circle cx="52" cy="96" r="10" fill="currentColor"/>
    
    <!-- Connecting lines -->
    <path d="M80 48L108 96L52 96L80 48Z" 
          stroke="currentColor" 
          stroke-width="6" 
          stroke-linejoin="round" 
          stroke-linecap="round"
          stroke-opacity="0.5"/>
    
    <!-- Center circle -->
    <circle cx="80" cy="80" r="16" fill="currentColor"/>
    
    <!-- Inner triangle -->
    <path d="M80 60L96 92H64L80 60Z" 
          fill="currentColor" 
          fill-opacity="0.3"/>
</svg>
