<?xml version="1.0" encoding="UTF-8"?>
<svg width="40" height="40" viewBox="0 0 40 40" fill="none" xmlns="http://www.w3.org/2000/svg">
    <!-- Base hexagon with smooth edges -->
    <path d="M20 7C21.2 7 22.3 7.4 23.1 8L28.8 11.6C29.6 12.1 30 12.9 30 13.8V24.2C30 25.1 29.6 25.9 28.8 26.4L23.1 30C22.3 30.6 21.2 31 20 31C18.8 31 17.7 30.6 16.9 30L11.2 26.4C10.4 25.9 10 25.1 10 24.2V13.8C10 12.9 10.4 12.1 11.2 11.6L16.9 8C17.7 7.4 18.8 7 20 7Z" 
          stroke="currentColor" 
          stroke-width="1.5" 
          stroke-linejoin="round"
          stroke-linecap="round"/>
    
    <!-- Orbiting circles -->
    <circle cx="20" cy="12" r="2.5" fill="currentColor"/>
    <circle cx="27" cy="24" r="2.5" fill="currentColor"/>
    <circle cx="13" cy="24" r="2.5" fill="currentColor"/>
    
    <!-- Connecting lines -->
    <path d="M20 12L27 24L13 24L20 12Z" 
          stroke="currentColor" 
          stroke-width="1.5" 
          stroke-linejoin="round" 
          stroke-linecap="round"
          stroke-opacity="0.5"/>
    
    <!-- Center circle -->
    <circle cx="20" cy="20" r="4" fill="currentColor"/>
    
    <!-- Inner triangle -->
    <path d="M20 15L24 23H16L20 15Z" 
          fill="currentColor" 
          fill-opacity="0.3"/>
</svg>
